<?xml version="1.0" encoding="UTF-8" standalone="no"?>
<!-- Created with Inkscape (http://www.inkscape.org/) -->

<svg
   width="20.17mm"
   height="25.283381mm"
   viewBox="0 0 20.17 25.283381"
   version="1.1"
   id="svg1"
   xml:space="preserve"
   inkscape:version="1.3.2 (091e20e, 2023-11-25, custom)"
   sodipodi:docname="EventraLogo.svg"
   xmlns:inkscape="http://www.inkscape.org/namespaces/inkscape"
   xmlns:sodipodi="http://sodipodi.sourceforge.net/DTD/sodipodi-0.dtd"
   xmlns="http://www.w3.org/2000/svg"
   xmlns:svg="http://www.w3.org/2000/svg"><sodipodi:namedview
     id="namedview1"
     pagecolor="#ffffff"
     bordercolor="#000000"
     borderopacity="0.25"
     inkscape:showpageshadow="2"
     inkscape:pageopacity="0.0"
     inkscape:pagecheckerboard="0"
     inkscape:deskcolor="#d1d1d1"
     inkscape:document-units="mm"
     inkscape:zoom="2.8284271"
     inkscape:cx="69.826794"
     inkscape:cy="67.705474"
     inkscape:window-width="1920"
     inkscape:window-height="1001"
     inkscape:window-x="-9"
     inkscape:window-y="-9"
     inkscape:window-maximized="1"
     inkscape:current-layer="layer1" /><defs
     id="defs1"><inkscape:perspective
       sodipodi:type="inkscape:persp3d"
       inkscape:vp_x="0 : -123.21662 : 1"
       inkscape:vp_y="0 : 999.99996 : 0"
       inkscape:vp_z="210.00001 : -123.21662 : 1"
       inkscape:persp3d-origin="105 : -172.71662 : 1"
       id="perspective5" /></defs><g
     inkscape:label="Capa 1"
     inkscape:groupmode="layer"
     id="layer1"
     transform="translate(-99.999999,-150)"><path
       style="fill:#2f6690;fill-opacity:1"
       d="m 100.88882,175.18263 c -0.17216,-0.0684 -0.33162,-0.18609 -0.49638,-0.36636 -0.31762,-0.34753 -0.416688,-0.6392 -0.38762,-1.1413 0.0447,-0.77231 0.52882,-1.28545 1.27879,-1.35549 0.81807,-0.0764 1.3902,0.46032 1.47938,1.3878 l 0.0293,0.30517 -0.65403,0.005 c -0.35972,0.003 -0.83695,0.0191 -1.06052,0.0366 l -0.40648,0.0318 0.11368,0.16826 c 0.26073,0.38593 0.7516,0.48044 1.1828,0.22774 l 0.23484,-0.13762 0.2175,0.21261 0.21751,0.21261 -0.15841,0.13312 c -0.42069,0.35351 -1.10323,0.47378 -1.5904,0.28022 z m 1.15697,-1.77678 c 0,-0.1268 -0.24858,-0.36737 -0.43835,-0.42423 -0.26881,-0.0805 -0.51034,-0.0192 -0.70984,0.18031 -0.29215,0.29216 -0.25898,0.31341 0.48901,0.31341 0.53759,0 0.65918,-0.0128 0.65918,-0.0695 z m 5.42673,1.82321 c -0.36884,-0.11311 -0.6844,-0.39212 -0.90012,-0.79588 -0.089,-0.1665 -0.10742,-0.28063 -0.10753,-0.66487 -1.3e-4,-0.42849 0.0114,-0.48435 0.15117,-0.73242 0.17616,-0.31268 0.52465,-0.59943 0.83358,-0.68593 0.28577,-0.08 0.7756,-0.0356 1.02796,0.0931 0.46289,0.23615 0.74594,0.7212 0.74594,1.27826 v 0.29114 h -0.4562 c -0.25091,0 -0.72217,0.0143 -1.04725,0.0318 l -0.59105,0.0318 0.0697,0.13481 c 0.21867,0.42286 0.84483,0.54358 1.25325,0.24162 l 0.14069,-0.10401 0.24575,0.20575 0.24574,0.20575 -0.13784,0.11734 c -0.36684,0.31228 -1.06175,0.47815 -1.4738,0.35179 z m 1.01858,-1.80497 c 0,-0.1278 -0.15708,-0.33327 -0.31041,-0.40603 -0.19496,-0.0925 -0.47948,-0.10377 -0.63274,-0.025 -0.17617,0.0905 -0.37521,0.29941 -0.37521,0.39379 0,0.0811 0.0552,0.0885 0.65918,0.0885 0.42769,0 0.65918,-0.018 0.65918,-0.0512 z m 5.34078,1.78775 c -0.17504,-0.0762 -0.37052,-0.31866 -0.45123,-0.5597 -0.032,-0.0955 -0.0556,-0.48588 -0.0556,-0.91915 v -0.75317 l -0.25634,0.0138 -0.25635,0.0138 -0.0144,-0.32753 -0.0144,-0.32752 h 0.27079 0.27078 v -0.39063 -0.39062 h 0.3418 0.3418 v 0.39062 0.39063 h 0.36621 0.36621 v 0.34179 0.3418 h -0.36621 -0.36621 l -0.007,0.45166 c -0.0103,0.68441 0.005,0.83136 0.1015,0.96435 0.0765,0.10559 0.12555,0.12191 0.36311,0.12085 l 0.27464,-0.001 v 0.30411 0.30411 l -0.18311,0.0508 c -0.24825,0.0689 -0.54206,0.0613 -0.72611,-0.0187 z m 4.39952,0.002 c -0.34068,-0.14845 -0.60229,-0.63278 -0.54211,-1.00364 0.0378,-0.23276 0.26051,-0.53554 0.47573,-0.6467 0.33392,-0.17246 0.87183,-0.19968 1.22696,-0.0621 0.1086,0.0421 0.10971,-0.0335 0.004,-0.25673 -0.14534,-0.30628 -0.57221,-0.39166 -1.05016,-0.21005 -0.13968,0.0531 -0.25755,0.0915 -0.26194,0.0855 -0.004,-0.006 -0.0666,-0.1126 -0.13816,-0.23673 l -0.13019,-0.22568 0.11084,-0.0708 c 0.58342,-0.37265 1.45324,-0.35994 1.85171,0.0271 0.33244,0.32285 0.3564,0.42409 0.37496,1.58397 l 0.0166,1.04003 -0.30941,-0.0146 -0.3094,-0.0147 -0.0155,-0.16089 -0.0155,-0.16089 -0.16631,0.14602 c -0.27218,0.23898 -0.79526,0.32334 -1.12203,0.18096 z m 0.87319,-0.63405 c 0.1947,-0.0814 0.37284,-0.29547 0.37284,-0.44817 0,-0.2853 -0.8377,-0.26715 -1.06046,0.023 -0.097,0.12638 -0.0717,0.23199 0.0876,0.36611 0.16896,0.14217 0.35684,0.16067 0.59998,0.0591 z m -14.94121,0.39692 c -0.18488,-0.36414 -1.12894,-2.41183 -1.16649,-2.53014 -0.0298,-0.094 -0.0133,-0.0979 0.35108,-0.0843 l 0.38239,0.0143 0.43817,0.98598 c 0.241,0.54229 0.44615,0.97801 0.45589,0.96827 0.01,-0.01 0.18138,-0.3985 0.38142,-0.86391 0.20004,-0.46541 0.39027,-0.90663 0.42273,-0.98048 0.0571,-0.12987 0.0715,-0.13427 0.43773,-0.13427 0.20829,0 0.3787,0.011 0.3787,0.0246 0,0.0135 -0.15701,0.34859 -0.34892,0.74463 -0.30144,0.62208 -0.46565,0.99089 -0.85867,1.92857 l -0.0768,0.1831 h -0.33357 -0.33357 z m 5.69491,-1.18409 v -1.44042 h 0.31738 0.31738 v 0.20617 c 0,0.20106 0.002,0.20347 0.0765,0.097 0.1294,-0.18473 0.44846,-0.31537 0.77606,-0.31776 0.45813,-0.003 0.70788,0.16816 0.91102,0.62554 0.0973,0.21897 0.11047,0.34575 0.13099,1.25672 l 0.0228,1.01318 h -0.34833 -0.34833 l -10e-4,-0.79345 c -6.4e-4,-0.4364 -0.0211,-0.87932 -0.0454,-0.98425 -0.12788,-0.55134 -0.74583,-0.59403 -1.05164,-0.0727 -0.0869,0.14814 -0.0973,0.25548 -0.0977,1.00787 l -4.1e-4,0.84207 -0.32959,2.1e-4 -0.32959,2.1e-4 z m 5.61523,0 v -1.44042 h 0.32251 0.32251 l -0.0185,0.19385 -0.0185,0.19386 0.12322,-0.11504 c 0.17384,-0.1623 0.37932,-0.25413 0.64698,-0.28914 0.35133,-0.046 0.37956,-0.021 0.37956,0.33508 0,0.40295 -0.0284,0.47701 -0.1565,0.40844 -0.11594,-0.062 -0.39925,-0.0179 -0.58352,0.0909 -0.0713,0.0421 -0.1757,0.15844 -0.23194,0.25851 -0.0905,0.16102 -0.10233,0.26264 -0.10292,0.88331 -9.1e-4,0.95258 0.0118,0.92108 -0.37124,0.92108 h -0.31169 z m -5.98145,-4.6666 c -0.29541,-0.0191 -0.71289,-0.0613 -0.92773,-0.0938 -0.43862,-0.0663 -1.39159,-0.33018 -1.74899,-0.48428 -0.27207,-0.11731 -0.27284,-0.14501 -0.0164,-0.58787 0.47936,-0.82786 1.64425,-1.66427 4.08475,-2.93289 0.6311,-0.32806 1.19724,-0.62762 1.25809,-0.6657 l 0.11064,-0.0692 -0.013,-4.34234 c -0.0117,-3.91639 -0.0207,-4.35005 -0.0916,-4.42097 -0.0543,-0.0543 -0.33337,-0.11464 -0.90332,-0.1952 -0.45357,-0.0641 -1.38497,-0.20511 -2.06979,-0.31333 -0.68481,-0.10822 -1.27258,-0.19694 -1.30615,-0.19715 -0.0484,-3.2e-4 -0.061,0.98766 -0.061,4.77823 v 4.77863 l -1.58121,0.78254 c -0.86967,0.4304 -1.80674,0.90741 -2.08237,1.06001 l -0.50116,0.27747 -0.31268,-0.30885 c -0.76438,-0.75506 -1.56391,-1.99184 -2.01032,-3.10978 -0.45572,-1.14122 -0.637,-2.00095 -0.67581,-3.20494 -0.0902,-2.79923 0.94801,-5.32854 2.99642,-7.29981 0.6722,-0.64687 1.27442,-1.07524 2.13378,-1.51778 2.57137,-1.32416 5.57378,-1.41096 8.14672,-0.23553 2.65201,1.21156 4.69749,3.6788 5.36476,6.47094 0.29986,1.25476 0.32594,2.92895 0.0649,4.16909 -0.16815,0.79899 -0.48298,1.6997 -0.81068,2.31934 -0.0568,0.10742 -0.1728,0.32908 -0.25776,0.49258 -0.48985,0.94269 -1.60364,2.23363 -2.52766,2.92969 -1.87015,1.40876 -4.01356,2.06622 -6.2624,1.92089 z m 4.00042,-2.85641 c 0.15875,-0.15875 0.032,-0.46038 -0.19341,-0.46038 -0.13597,0 -0.23034,0.11002 -0.23034,0.26855 0,0.24471 0.2553,0.36028 0.42375,0.19183 z m 2.60603,-3.83929 c 0.0648,-0.0648 0.0772,-0.27707 0.0212,-0.36207 -0.1307,-0.19839 -0.45092,-0.0746 -0.45092,0.17433 0,0.16346 0.0821,0.24633 0.24414,0.24633 0.0698,0 0.15332,-0.0264 0.18555,-0.0586 z m -11.83454,-0.55525 c 0.1045,-0.1045 0.0964,-0.24542 -0.0209,-0.36272 -0.2384,-0.2384 -0.55217,0.04 -0.38891,0.34501 0.0622,0.11628 0.30095,0.1266 0.40984,0.0177 z m 11.00446,-3.15569 c 0.13786,-0.13786 0.0184,-0.47851 -0.16783,-0.47851 -0.22736,0 -0.33148,0.21812 -0.21131,0.44266 0.0573,0.10704 0.2863,0.1287 0.37914,0.0358 z m -11.11468,-0.51049 c 0.16966,-0.15354 0.0522,-0.4563 -0.17707,-0.4563 -0.14641,0 -0.22192,0.0914 -0.22192,0.26855 0,0.25755 0.21175,0.35719 0.39899,0.18775 z m 1.26117,-3.23951 c 0.22357,-0.22357 0.0248,-0.5251 -0.27827,-0.42211 -0.26163,0.0889 -0.15552,0.46778 0.14399,0.5141 0.0201,0.003 0.0806,-0.0383 0.13428,-0.092 z m 8.74001,-0.12165 c 0.139,-0.25973 -0.0986,-0.5221 -0.31315,-0.32792 -0.19206,0.1738 -0.15122,0.44957 0.1133,0.44957 0.0936,0 0.15461,-0.0371 0.19985,-0.12165 z m -4.93954,-2.20237 c 0.15641,-0.10956 0.12963,-0.35593 -0.0496,-0.45604 -0.11949,-0.0667 -0.13977,-0.0652 -0.23193,0.0183 -0.13518,0.12234 -0.13141,0.34239 0.008,0.43971 0.13393,0.0938 0.13733,0.0938 0.27398,-0.002 z m 1.83016,8.23188 c -0.17898,-0.0721 -0.26497,-0.33857 -0.18038,-0.55899 0.0369,-0.0961 0.26874,-0.22191 0.40892,-0.22191 0.16587,0 0.342,0.21373 0.342,0.41503 0,0.31194 -0.2718,0.48624 -0.57054,0.36587 z"
       id="path1"
       sodipodi:nodetypes="cssscccscsscccsccscssssccssscscsscsscccsccsscsssscsscccccccccccccccccccccccccsccsssscscccscccccccsssssscssccscssssssscccccccccscccscccccscccccccccccscscssssccscsssccsssssscsscsscsssssssssssssssssssscsccccssccsssssscssssssccccccsssss" /></g></svg>
