<?xml version="1.0" encoding="UTF-8" standalone="no"?>
<!-- Created with Inkscape (http://www.inkscape.org/) -->

<svg
   width="18.891325mm"
   height="19.145573mm"
   viewBox="0 0 18.891325 19.145573"
   version="1.1"
   id="svg1"
   xml:space="preserve"
   inkscape:version="1.3.2 (091e20e, 2023-11-25, custom)"
   sodipodi:docname="EventraLogoNoText.svg"
   xmlns:inkscape="http://www.inkscape.org/namespaces/inkscape"
   xmlns:sodipodi="http://sodipodi.sourceforge.net/DTD/sodipodi-0.dtd"
   xmlns="http://www.w3.org/2000/svg"
   xmlns:svg="http://www.w3.org/2000/svg"><sodipodi:namedview
     id="namedview1"
     pagecolor="#ffffff"
     bordercolor="#000000"
     borderopacity="0.25"
     inkscape:showpageshadow="2"
     inkscape:pageopacity="0.0"
     inkscape:pagecheckerboard="0"
     inkscape:deskcolor="#d1d1d1"
     inkscape:document-units="mm"
     inkscape:zoom="2.8284271"
     inkscape:cx="10.076272"
     inkscape:cy="41.896077"
     inkscape:window-width="1920"
     inkscape:window-height="1001"
     inkscape:window-x="-9"
     inkscape:window-y="-9"
     inkscape:window-maximized="1"
     inkscape:current-layer="layer1" /><defs
     id="defs1"><inkscape:perspective
       sodipodi:type="inkscape:persp3d"
       inkscape:vp_x="0 : -129.35443 : 1"
       inkscape:vp_y="0 : 999.99995 : 0"
       inkscape:vp_z="210 : -129.35443 : 1"
       inkscape:persp3d-origin="105 : -178.85443 : 1"
       id="perspective5" /></defs><g
     inkscape:label="Capa 1"
     inkscape:groupmode="layer"
     id="layer1"
     transform="translate(-100.63848,-150.00018)"><path
       id="path1"
       style="fill:#3a7ca5;fill-opacity:1"
       d="m 110.36939,150.00362 c -1.56601,-0.0426 -3.14867,0.31039 -4.59507,1.05523 -0.85936,0.44254 -1.46152,0.87087 -2.13372,1.51774 -2.04822,1.97108 -3.08691,4.50058 -2.99671,7.29981 0.0388,1.20399 0.22021,2.06375 0.67593,3.20497 0.44622,1.11794 1.24583,2.35483 2.01021,3.10989 l 0.31264,0.30902 0.50126,-0.2775 c 0.27563,-0.1526 1.21289,-0.62948 2.08256,-1.05988 l 1.5813,-0.7829 v -4.77852 c 0,-3.79057 0.0126,-4.77832 0.061,-4.778 0.0336,2.1e-4 0.62105,0.0887 1.30586,0.19689 0.68482,0.10822 1.61607,0.24905 2.06964,0.31315 0.56995,0.0806 0.84901,0.14104 0.90331,0.19534 0.0709,0.0709 0.0803,0.50453 0.092,4.42092 l 0.0129,4.34237 -0.11059,0.0693 c -0.0609,0.0381 -0.62722,0.33753 -1.25832,0.66559 -2.4405,1.26862 -3.60514,2.10529 -4.0845,2.93315 -0.25644,0.44286 -0.255,0.47026 0.0165,0.58757 0.3574,0.15391 1.31011,0.41842 1.74873,0.48472 0.21484,0.0325 0.63219,0.0744 0.9276,0.0935 2.24865,0.14533 4.39251,-0.51205 6.26266,-1.92081 0.92402,-0.69606 2.03765,-1.98685 2.5275,-2.92954 0.085,-0.1635 0.20106,-0.38557 0.25786,-0.49299 0.3277,-0.61964 0.64266,-1.52025 0.81081,-2.31924 0.26104,-1.24014 0.23438,-2.91416 -0.0651,-4.16873 -0.66727,-2.79214 -2.71252,-5.25937 -5.36453,-6.47093 -1.12566,-0.51425 -2.33371,-0.78697 -3.55172,-0.8201 z m -1.32963,2.13837 h 5.1e-4 c 0.0314,-0.002 0.0661,0.0144 0.12558,0.0475 0.1791,0.10004 0.20584,0.34611 0.0496,0.45579 -0.13621,0.0955 -0.13959,0.0976 -0.27337,0.002 -0.13941,-0.0973 -0.13895,-0.31742 -0.008,-0.43976 0.0459,-0.0415 0.0741,-0.0631 0.10542,-0.0656 z m 4.96093,2.31045 c 0.15083,0.004 0.25825,0.20053 0.154,0.39533 -0.0452,0.0846 -0.10587,0.12144 -0.19947,0.12144 -0.26452,0 -0.30523,-0.27579 -0.11317,-0.44959 0.0536,-0.0485 0.10837,-0.0685 0.15864,-0.0672 z m -8.75605,0.0744 c 0.23802,-0.008 0.36616,0.24672 0.17053,0.44235 -0.0537,0.0537 -0.11426,0.095 -0.13436,0.092 -0.29951,-0.0463 -0.4058,-0.42476 -0.14417,-0.51366 0.0379,-0.0129 0.074,-0.0195 0.108,-0.0207 z m -1.26814,3.22564 c 0.22927,0 0.34691,0.30276 0.17725,0.4563 -0.18724,0.16944 -0.39894,0.07 -0.39894,-0.18758 0,-0.17715 0.0753,-0.26872 0.22169,-0.26872 z m 11.12387,0.48834 c 0.18623,0 0.30581,0.34066 0.16795,0.47852 -0.0928,0.0929 -0.32149,0.0714 -0.37879,-0.0357 -0.12017,-0.22454 -0.0165,-0.44287 0.21084,-0.44287 z m -3.82612,1.8557 c -0.14018,0 -0.37238,0.12559 -0.40928,0.22169 -0.0846,0.22042 0.001,0.48704 0.18035,0.55914 0.29874,0.12037 0.57102,-0.0539 0.57102,-0.36587 0,-0.2013 -0.17622,-0.41496 -0.34209,-0.41496 z m -7.21558,1.32602 c 0.0604,0.003 0.12488,0.0303 0.18448,0.0899 0.1173,0.1173 0.12463,0.25826 0.0207,0.36276 -0.10889,0.1089 -0.34759,0.0982 -0.40979,-0.0181 -0.12245,-0.22876 0.0235,-0.44258 0.20464,-0.4346 z m 11.86077,0.54829 c 0.0754,-0.006 0.15149,0.0227 0.20051,0.0971 0.056,0.085 0.0436,0.29745 -0.0212,0.36225 h -5.2e-4 c -0.0322,0.0322 -0.11572,0.0589 -0.18552,0.0589 -0.16204,0 -0.24391,-0.083 -0.24391,-0.2465 0,-0.15558 0.12491,-0.2621 0.25063,-0.27181 z m -2.62051,3.83852 c 0.22541,0 0.35254,0.30169 0.19379,0.46044 -0.16845,0.16845 -0.42375,0.0525 -0.42375,-0.19224 0,-0.15853 0.094,-0.2682 0.22996,-0.2682 z" /></g></svg>
